<svg viewBox="0 0 640 290" width="640" height="290" xmlns="http://www.w3.org/2000/svg" role="img" aria-label="kfchost 5GPN 面板示意">
<title>kfchost 5GPN 面板</title>
<rect x="0" y="0" width="640" height="290" rx="10" fill="#ffffff" stroke="#e5e7eb"/>
<text x="20" y="34" fill="#1f2937" font-family="sans-serif" font-size="15" font-weight="500">5GPN</text>
<rect x="20" y="46" width="84" height="22" rx="11" fill="#e7f6ec"/><text x="62" y="61" fill="#137a3a" font-family="sans-serif" font-size="11" text-anchor="middle">链接已生成</text>
<rect x="380" y="44" width="86" height="26" rx="6" fill="#fff" stroke="#d1d5db"/><text x="423" y="61" fill="#374151" font-family="sans-serif" font-size="11.5" text-anchor="middle">打开门户</text>
<rect x="472" y="44" width="86" height="26" rx="6" fill="#2563eb"/><text x="515" y="61" fill="#fff" font-family="sans-serif" font-size="11.5" text-anchor="middle">生成链接</text>
<rect x="564" y="44" width="60" height="26" rx="6" fill="#fdeaea"/><text x="594" y="61" fill="#c0392b" font-family="sans-serif" font-size="11.5" text-anchor="middle">关闭</text>
<rect x="20" y="82" width="604" height="44" rx="8" fill="#fff8e6" stroke="#f3e1ad"/>
<text x="34" y="100" fill="#8a6d1a" font-family="sans-serif" font-size="11.5" font-weight="500">⚠ 重要提示</text>
<text x="34" y="117" fill="#8a6d1a" font-family="sans-serif" font-size="11">仅限(浙江联通手机卡)专网功能将在工作日约 3 小时内完成开通,非工作时间顺延至下一工作日。</text>
<g font-family="sans-serif">
<rect x="20" y="140" width="194" height="46" rx="8" fill="#f9fafb" stroke="#eef0f2"/><text x="34" y="160" fill="#9ca3af" font-size="10.5">目标 IP</text><text x="34" y="178" fill="#1f2937" font-size="12">203.0.113.10</text>
<rect x="224" y="140" width="194" height="46" rx="8" fill="#f9fafb" stroke="#eef0f2"/><text x="238" y="160" fill="#9ca3af" font-size="10.5">套餐到期时间</text><text x="238" y="178" fill="#1f2937" font-size="12">2027-06-30</text>
<rect x="428" y="140" width="196" height="46" rx="8" fill="#f9fafb" stroke="#eef0f2"/><text x="442" y="160" fill="#9ca3af" font-size="10.5">链接到期时间</text><text x="442" y="178" fill="#1f2937" font-size="12">2026-06-22 23:59</text>
<rect x="20" y="194" width="194" height="46" rx="8" fill="#f9fafb" stroke="#eef0f2"/><text x="34" y="214" fill="#9ca3af" font-size="10.5">有效月数</text><text x="34" y="232" fill="#1f2937" font-size="12">12</text>
<rect x="224" y="194" width="194" height="46" rx="8" fill="#f9fafb" stroke="#eef0f2"/><text x="238" y="214" fill="#9ca3af" font-size="10.5">份数</text><text x="238" y="232" fill="#1f2937" font-size="12">1</text>
<rect x="428" y="194" width="196" height="46" rx="8" fill="#f9fafb" stroke="#eef0f2"/><text x="442" y="214" fill="#9ca3af" font-size="10.5">金额</text><text x="442" y="232" fill="#1f2937" font-size="12">¥120.00</text>
<rect x="20" y="248" width="604" height="30" rx="8" fill="#f9fafb" stroke="#eef0f2"/><text x="34" y="267" fill="#9ca3af" font-size="10.5">门户链接</text><text x="120" y="267" fill="#6b7280" font-size="11">https://5gpn.example.com/portal?token=••••••</text>
</g>
</svg>
